<mxfile host="app.diagrams.net" modified="2020-10-20T04:59:05.813Z" agent="5.0 (Windows NT 10.0; Win64; x64) AppleWebKit/537.36 (KHTML, like Gecko) Chrome/86.0.4240.75 Safari/537.36" etag="Jv1S3Unm2U7pSJ__A6oD" version="13.8.0" type="github">
  <diagram id="C5RBs43oDa-KdzZeNtuy" name="Page-1">
    <mxGraphModel dx="1038" dy="588" grid="1" gridSize="10" guides="1" tooltips="1" connect="1" arrows="1" fold="1" page="1" pageScale="1" pageWidth="827" pageHeight="1169" math="0" shadow="0">
      <root>
        <mxCell id="WIyWlLk6GJQsqaUBKTNV-0" />
        <mxCell id="WIyWlLk6GJQsqaUBKTNV-1" parent="WIyWlLk6GJQsqaUBKTNV-0" />
        <mxCell id="vC7Qt6_hnQxV1tRllHp6-0" value="Fish" style="swimlane;fontStyle=1;align=center;verticalAlign=top;childLayout=stackLayout;horizontal=1;startSize=26;horizontalStack=0;resizeParent=1;resizeParentMax=0;resizeLast=0;collapsible=1;marginBottom=0;" parent="WIyWlLk6GJQsqaUBKTNV-1" vertex="1">
          <mxGeometry x="190" y="60" width="180" height="150" as="geometry" />
        </mxCell>
        <mxCell id="VvWM4rgnWC1p4ekKy6gF-2" value="" style="endArrow=none;html=1;" edge="1" parent="vC7Qt6_hnQxV1tRllHp6-0">
          <mxGeometry width="50" height="50" relative="1" as="geometry">
            <mxPoint y="49.5" as="sourcePoint" />
            <mxPoint x="180" y="49.5" as="targetPoint" />
          </mxGeometry>
        </mxCell>
        <mxCell id="vC7Qt6_hnQxV1tRllHp6-1" value="+color:string&#xa;&#xa;+Swim():void&#xa;&#xa;+SetColor(warna:string):void&#xa;&#xa;+GetColor:string" style="text;strokeColor=none;fillColor=none;align=left;verticalAlign=top;spacingLeft=4;spacingRight=4;overflow=hidden;rotatable=0;points=[[0,0.5],[1,0.5]];portConstraint=eastwest;" parent="vC7Qt6_hnQxV1tRllHp6-0" vertex="1">
          <mxGeometry y="26" width="180" height="124" as="geometry" />
        </mxCell>
        <mxCell id="vC7Qt6_hnQxV1tRllHp6-12" value="Shark" style="swimlane;fontStyle=1;align=center;verticalAlign=top;childLayout=stackLayout;horizontal=1;startSize=26;horizontalStack=0;resizeParent=1;resizeParentMax=0;resizeLast=0;collapsible=1;marginBottom=0;" parent="WIyWlLk6GJQsqaUBKTNV-1" vertex="1">
          <mxGeometry x="192.5" y="360" width="175" height="210" as="geometry" />
        </mxCell>
        <mxCell id="vC7Qt6_hnQxV1tRllHp6-13" value="-sharpTeeth:int" style="text;strokeColor=none;fillColor=none;align=left;verticalAlign=top;spacingLeft=4;spacingRight=4;overflow=hidden;rotatable=0;points=[[0,0.5],[1,0.5]];portConstraint=eastwest;" parent="vC7Qt6_hnQxV1tRllHp6-12" vertex="1">
          <mxGeometry y="26" width="175" height="26" as="geometry" />
        </mxCell>
        <mxCell id="vC7Qt6_hnQxV1tRllHp6-14" value="" style="line;strokeWidth=1;fillColor=none;align=left;verticalAlign=middle;spacingTop=-1;spacingLeft=3;spacingRight=3;rotatable=0;labelPosition=right;points=[];portConstraint=eastwest;" parent="vC7Qt6_hnQxV1tRllHp6-12" vertex="1">
          <mxGeometry y="52" width="175" height="8" as="geometry" />
        </mxCell>
        <mxCell id="vC7Qt6_hnQxV1tRllHp6-15" value="+Eat():void&#xa;&#xa;+SetSharpTeeth():void&#xa;&#xa;+Swim():void&#xa;&#xa;+Swim(fin:int):void&#xa;&#xa;+Swim(eye:int,mouth:int):void" style="text;strokeColor=none;fillColor=none;align=left;verticalAlign=top;spacingLeft=4;spacingRight=4;overflow=hidden;rotatable=0;points=[[0,0.5],[1,0.5]];portConstraint=eastwest;" parent="vC7Qt6_hnQxV1tRllHp6-12" vertex="1">
          <mxGeometry y="60" width="175" height="150" as="geometry" />
        </mxCell>
        <mxCell id="vC7Qt6_hnQxV1tRllHp6-16" value="Aquarium" style="swimlane;fontStyle=1;childLayout=stackLayout;horizontal=1;startSize=26;fillColor=none;horizontalStack=0;resizeParent=1;resizeParentMax=0;resizeLast=0;collapsible=1;marginBottom=0;" parent="WIyWlLk6GJQsqaUBKTNV-1" vertex="1">
          <mxGeometry x="580" y="60" width="150" height="140" as="geometry" />
        </mxCell>
        <mxCell id="vC7Qt6_hnQxV1tRllHp6-17" value="+length:int" style="text;strokeColor=none;fillColor=none;align=left;verticalAlign=top;spacingLeft=4;spacingRight=4;overflow=hidden;rotatable=0;points=[[0,0.5],[1,0.5]];portConstraint=eastwest;" parent="vC7Qt6_hnQxV1tRllHp6-16" vertex="1">
          <mxGeometry y="26" width="150" height="26" as="geometry" />
        </mxCell>
        <mxCell id="vC7Qt6_hnQxV1tRllHp6-18" value="+height:int" style="text;strokeColor=none;fillColor=none;align=left;verticalAlign=top;spacingLeft=4;spacingRight=4;overflow=hidden;rotatable=0;points=[[0,0.5],[1,0.5]];portConstraint=eastwest;" parent="vC7Qt6_hnQxV1tRllHp6-16" vertex="1">
          <mxGeometry y="52" width="150" height="26" as="geometry" />
        </mxCell>
        <mxCell id="VvWM4rgnWC1p4ekKy6gF-0" value="" style="endArrow=none;html=1;" edge="1" parent="vC7Qt6_hnQxV1tRllHp6-16">
          <mxGeometry width="50" height="50" relative="1" as="geometry">
            <mxPoint y="110" as="sourcePoint" />
            <mxPoint x="150" y="110" as="targetPoint" />
            <Array as="points" />
          </mxGeometry>
        </mxCell>
        <mxCell id="vC7Qt6_hnQxV1tRllHp6-19" value="+width:int&#xa;&#xa;+fillFish():void&#xa;&#xa;" style="text;strokeColor=none;fillColor=none;align=left;verticalAlign=top;spacingLeft=4;spacingRight=4;overflow=hidden;rotatable=0;points=[[0,0.5],[1,0.5]];portConstraint=eastwest;" parent="vC7Qt6_hnQxV1tRllHp6-16" vertex="1">
          <mxGeometry y="78" width="150" height="62" as="geometry" />
        </mxCell>
        <mxCell id="vC7Qt6_hnQxV1tRllHp6-23" value="has" style="text;html=1;strokeColor=none;fillColor=none;align=center;verticalAlign=middle;whiteSpace=wrap;rounded=0;" parent="WIyWlLk6GJQsqaUBKTNV-1" vertex="1">
          <mxGeometry x="460" y="100" width="40" height="20" as="geometry" />
        </mxCell>
        <mxCell id="vC7Qt6_hnQxV1tRllHp6-24" value="+Fish" style="text;html=1;strokeColor=none;fillColor=none;align=center;verticalAlign=middle;whiteSpace=wrap;rounded=0;" parent="WIyWlLk6GJQsqaUBKTNV-1" vertex="1">
          <mxGeometry x="374" y="80" width="40" height="20" as="geometry" />
        </mxCell>
        <mxCell id="vC7Qt6_hnQxV1tRllHp6-25" value="+Aquarium" style="text;html=1;strokeColor=none;fillColor=none;align=center;verticalAlign=middle;whiteSpace=wrap;rounded=0;" parent="WIyWlLk6GJQsqaUBKTNV-1" vertex="1">
          <mxGeometry x="510" y="80" width="70" height="20" as="geometry" />
        </mxCell>
        <mxCell id="vC7Qt6_hnQxV1tRllHp6-26" value="1..*" style="text;html=1;strokeColor=none;fillColor=none;align=center;verticalAlign=middle;whiteSpace=wrap;rounded=0;" parent="WIyWlLk6GJQsqaUBKTNV-1" vertex="1">
          <mxGeometry x="380" y="140" width="40" height="20" as="geometry" />
        </mxCell>
        <mxCell id="vC7Qt6_hnQxV1tRllHp6-27" value="1" style="text;html=1;strokeColor=none;fillColor=none;align=center;verticalAlign=middle;whiteSpace=wrap;rounded=0;" parent="WIyWlLk6GJQsqaUBKTNV-1" vertex="1">
          <mxGeometry x="530" y="140" width="40" height="20" as="geometry" />
        </mxCell>
        <mxCell id="VvWM4rgnWC1p4ekKy6gF-4" value="" style="endArrow=diamondThin;endFill=0;endSize=24;html=1;entryX=1;entryY=0.305;entryDx=0;entryDy=0;entryPerimeter=0;exitX=0;exitY=0.5;exitDx=0;exitDy=0;" edge="1" parent="WIyWlLk6GJQsqaUBKTNV-1" source="vC7Qt6_hnQxV1tRllHp6-18" target="vC7Qt6_hnQxV1tRllHp6-1">
          <mxGeometry width="160" relative="1" as="geometry">
            <mxPoint x="460" y="300" as="sourcePoint" />
            <mxPoint x="620" y="300" as="targetPoint" />
          </mxGeometry>
        </mxCell>
        <mxCell id="VvWM4rgnWC1p4ekKy6gF-6" value="" style="endArrow=none;html=1;rounded=0;exitX=0.5;exitY=0;exitDx=0;exitDy=0;" edge="1" parent="WIyWlLk6GJQsqaUBKTNV-1" source="vC7Qt6_hnQxV1tRllHp6-12">
          <mxGeometry relative="1" as="geometry">
            <mxPoint x="260" y="290" as="sourcePoint" />
            <mxPoint x="280" y="230" as="targetPoint" />
          </mxGeometry>
        </mxCell>
        <mxCell id="VvWM4rgnWC1p4ekKy6gF-7" value="" style="triangle;whiteSpace=wrap;html=1;direction=south;rotation=-180;" vertex="1" parent="WIyWlLk6GJQsqaUBKTNV-1">
          <mxGeometry x="270" y="210" width="20" height="20" as="geometry" />
        </mxCell>
      </root>
    </mxGraphModel>
  </diagram>
</mxfile>
